<svg version="1.1" xmlns="http://www.w3.org/2000/svg" viewBox="-291.8399993896484 -3144.7041687011715 5192.70419921875 3464.1921936035155"><desc>Created with Snap</desc><defs></defs><g><rect x="-291.8399993896484" y="-3144.7041687011715" width="5192.70419921875" height="3464.1921936035155" fill="#1c391b" style=""></rect><g transform="matrix(4.2571,0,0,4.2571,1214.702,-3047.1862)"><title>Isometric</title><g data-name="Group"><polygon data-name="Path" points="247 462.1 247 345.905 66.853 404.003 247 462.1" fill="#ffffff" style=""></polygon><polygon data-name="Path" points="263 328.449 463 393.017 463 121.24 263 185.808 263 328.449" fill="#ffffff" style=""></polygon><polygon data-name="Path" points="49 393.017 247 329.094 247 185.164 49 121.24 49 393.017" fill="#ffffff" style=""></polygon><polygon data-name="Path" points="263 462.745 445.147 404.003 263 345.26 263 462.745" fill="#ffffff" style=""></polygon><polygon data-name="Path" points="256 49.255 66.853 110.255 256 171.255 445.147 110.255 256 49.255" fill="#ffffff" style=""></polygon></g><desc>Created with Snap</desc><defs></defs></g><g><g transform="matrix(1.024,0,0,-1.024,0,0)"><path d="M505 38L505 0L161 0L161 38Q181 46 206 54Q232 63 258 67L258 635L142 635L78 464L37 464Q33 484 29 515Q25 546 22 579Q19 612 17 644Q15 677 15 700L652 700Q652 676 650 644Q648 612 645 579Q642 546 638 515Q634 485 630 464L588 464L524 635L408 635L408 67Q434 62 459 55Q485 48 505 38ZM1295 39L1295 0L1030 0L1030 39Q1042 46 1055 52Q1068 58 1085 63L1085 265Q1085 351 1068 391Q1052 432 1004 432Q964 432 936 404Q908 377 896 341L896 63Q912 59 924 54Q937 49 951 39L951 0L686 0L686 39Q717 55 752 63L752 669L676 677L676 716Q691 722 714 728Q738 734 764 738Q790 743 816 746Q842 750 862 752L896 752L896 399L897 399Q907 422 924 442Q941 463 962 478Q984 494 1009 503Q1034 512 1062 512Q1102 512 1133 502Q1165 493 1186 469Q1207 445 1218 404Q1229 364 1229 302L1229 63Q1246 59 1263 54Q1280 49 1295 39ZM1774 104L1793 84Q1785 67 1767 49Q1750 32 1724 18Q1699 5 1665 -4Q1632 -12 1593 -12Q1531 -12 1483 6Q1435 25 1403 59Q1371 94 1354 142Q1338 190 1338 250Q1338 378 1405 445Q1472 512 1591 512Q1642 512 1686 498Q1731 484 1760 452Q1790 420 1801 368Q1813 316 1800 241L1493 241Q1494 162 1533 115Q1573 68 1650 68Q1683 68 1718 78Q1754 88 1774 104ZM1587 455Q1567 455 1551 448Q1536 441 1524 422Q1513 404 1506 372Q1499 341 1496 293L1657 293Q1664 371 1648 413Q1632 455 1587 455ZM1983 0L1864 0L1864 38Q1883 49 1904 57Q1926 65 1946 67L1946 633Q1926 637 1904 644Q1882 652 1864 662L1864 700L2025 700Q2063 700 2097 703Q2131 706 2175 706Q2223 706 2268 699Q2313 692 2348 674Q2383 656 2404 623Q2425 591 2425 540Q2425 508 2413 480Q2402 453 2381 432Q2361 411 2333 397Q2306 383 2274 377L2274 373Q2306 369 2338 358Q2371 347 2397 326Q2423 305 2439 273Q2456 242 2456 199Q2456 145 2432 106Q2408 67 2367 42Q2327 17 2275 5Q2223 -6 2167 -6Q2146 -6 2121 -5Q2096 -4 2071 -3Q2046 -2 2022 -1Q1999 0 1983 0ZM2166 59Q2229 59 2265 96Q2301 134 2301 196Q2301 234 2289 258Q2277 283 2256 297Q2235 312 2206 317Q2177 323 2143 323L2090 323L2090 66Q2104 63 2119 61Q2135 59 2166 59ZM2090 388L2122 388Q2139 388 2156 389Q2173 391 2188 393Q2227 409 2251 442Q2275 476 2275 519Q2275 582 2242 611Q2209 641 2157 641Q2135 641 2119 640Q2103 639 2090 637L2090 388ZM2800 39L2800 0L2524 0L2524 39Q2557 55 2590 63L2590 669L2514 677L2514 716Q2527 722 2550 728Q2573 734 2599 738Q2626 743 2652 746Q2679 750 2700 752L2734 752L2734 63Q2767 55 2800 39ZM2856 250Q2856 311 2874 359Q2893 408 2927 442Q2962 476 3011 494Q3060 512 3122 512Q3192 512 3242 492Q3293 473 3325 438Q3358 404 3373 355Q3388 307 3388 250Q3388 189 3370 140Q3352 92 3317 58Q3283 24 3233 6Q3184 -12 3122 -12Q3054 -12 3004 7Q2954 27 2921 61Q2888 96 2872 144Q2856 193 2856 250ZM3011 250Q3011 205 3016 167Q3022 130 3036 104Q3050 78 3074 63Q3098 49 3136 49Q3158 49 3176 59Q3194 70 3207 93Q3220 117 3226 155Q3233 194 3233 250Q3233 296 3227 333Q3222 370 3208 396Q3195 422 3172 436Q3149 451 3114 451Q3088 451 3069 440Q3050 430 3037 406Q3024 383 3017 344Q3011 306 3011 250ZM3859 102L3875 81Q3868 61 3852 44Q3836 28 3813 15Q3791 2 3762 -5Q3734 -12 3703 -12Q3637 -12 3589 6Q3542 25 3511 59Q3480 94 3465 142Q3450 191 3450 250Q3450 377 3519 444Q3589 512 3717 512Q3766 512 3807 501Q3848 491 3875 477Q3873 460 3869 439Q3866 419 3861 398Q3857 378 3851 358Q3845 339 3839 326L3790 326L3748 445Q3741 450 3733 452Q3725 455 3709 455Q3683 455 3664 445Q3645 436 3631 413Q3618 390 3611 352Q3605 314 3605 258Q3605 217 3614 182Q3623 148 3641 122Q3660 97 3688 82Q3716 68 3754 68Q3789 68 3815 78Q3841 88 3859 102ZM4225 461L4225 500L4459 500L4459 461Q4440 453 4423 447Q4407 441 4387 437Q4372 417 4354 397Q4337 378 4319 360Q4302 342 4286 325Q4270 309 4257 296Q4272 276 4292 248Q4312 220 4335 188Q4358 157 4383 124Q4409 92 4435 63L4486 39L4486 0L4317 0L4290 24Q4267 55 4249 82Q4232 109 4218 134Q4204 159 4191 182Q4178 206 4165 229L4132 239L4132 63Q4149 60 4163 54Q4177 48 4193 39L4193 0L3922 0L3922 39Q3955 55 3988 63L3988 669L3912 677L3912 716Q3926 722 3950 728Q3974 734 4001 738Q4028 743 4054 746Q4080 750 4098 752L4132 752L4132 283L4158 283Q4191 318 4219 360Q4248 402 4270 437Q4257 441 4246 447Q4236 453 4225 461Z" fill="#ffffff" style=""></path></g></g></g></svg>